<?xml version="1.0" encoding="UTF-8" standalone="no"?>
<!DOCTYPE svg PUBLIC "-//W3C//DTD SVG 1.1//EN" "http://www.w3.org/Graphics/SVG/1.1/DTD/svg11.dtd">
<svg version="1.1" baseProfile="full" xmlns="http://www.w3.org/2000/svg" xmlns:xlink="http://www.w3.org/1999/xlink" xmlns:ev="http://www.w3.org/2001/xml-events" width="100%" height="100%">
<rect fill="none" style="stroke:black;stroke-width:1" x="80" y="54" width="20" height="22" />
<path fill="none" stroke="black" d="M 100 65 L 110 65" />
<path fill="none" stroke="black" d="M 100 65 L 110 65" />
<rect fill="none" style="stroke:black;stroke-width:1" x="80" y="204" width="20" height="22" />
<path fill="none" stroke="black" d="M 100 215 L 110 215" />
<path fill="none" stroke="black" d="M 100 215 L 110 215" />
<rect fill="none" style="stroke:black;stroke-width:1" x="80" y="349" width="20" height="22" />
<path fill="none" stroke="black" d="M 100 360 L 110 360" />
<path fill="none" stroke="black" d="M 100 360 L 110 360" />
<rect fill="none" style="stroke:black;stroke-width:1" x="245" y="75" width="20" height="50" />
<path fill="none" stroke="black" d="M 245 100 L 235 100" />
<path fill="none" stroke="black" d="M 265 100 L 275 100" />
<circle cx="265px" cy="100px" r="3px" fill="white" stroke="black" /><rect fill="none" style="stroke:black;stroke-width:1" x="245" y="245" width="20" height="50" />
<path fill="none" stroke="black" d="M 245 270 L 235 270" />
<path fill="none" stroke="black" d="M 265 270 L 275 270" />
<circle cx="265px" cy="270px" r="3px" fill="white" stroke="black" /><rect fill="none" style="stroke:black;stroke-width:1" x="390" y="310" width="20" height="50" />
<path fill="none" stroke="black" d="M 390 325 L 380 325" />
<path fill="none" stroke="black" d="M 390 345 L 380 345" />
<path fill="none" stroke="black" d="M 410 335 L 420 335" />
<text x="396" y="330" font-size="14" font-family="Arial">&amp;</text>
<rect fill="none" style="stroke:black;stroke-width:1" x="385" y="145" width="20" height="50" />
<path fill="none" stroke="black" d="M 385 155 L 375 155" />
<path fill="none" stroke="black" d="M 385 170 L 375 170" />
<path fill="none" stroke="black" d="M 385 185 L 375 185" />
<path fill="none" stroke="black" d="M 405 170 L 415 170" />
<text x="391" y="165" font-size="14" font-family="Arial">&amp;</text>
<rect fill="none" style="stroke:black;stroke-width:1" x="520" y="230" width="20" height="50" />
<path fill="none" stroke="black" d="M 520 245 L 510 245" />
<path fill="none" stroke="black" d="M 520 265 L 510 265" />
<path fill="none" stroke="black" d="M 540 255 L 550 255" />
<text x="523" y="250" font-size="13" font-family="Arial">=1</text>
<circle cx="670px" cy="240px" r="10px" fill="white" stroke="black" /><path fill="none" stroke="black" d="M 670 250 L 670 255" />
<path fill="none" stroke="black" d="M 660 255 L 680 255" />
<path fill="none" stroke="black" d="M 660 255 L 650 255" />
<path fill="none" stroke="black" d="M 680 255 L 690 255" />
<path fill="none" stroke="black" d="M 680 255 L 690 255" />
<path fill="none" stroke="black" d="M 110 65 L 167 65" />
<path fill="none" stroke="black" d="M 167 65 L 167 100" />
<path fill="none" stroke="black" d="M 167 100 L 235 100" />
<path fill="none" stroke="black" d="M 110 360 L 342 360" />
<path fill="none" stroke="black" d="M 342 360 L 342 345" />
<path fill="none" stroke="black" d="M 342 345 L 380 345" />
<path fill="none" stroke="black" d="M 110 215 L 159 215" />
<path fill="none" stroke="black" d="M 159 215 L 159 270" />
<path fill="none" stroke="black" d="M 159 270 L 235 270" />
<path fill="none" stroke="black" d="M 275 270 L 365 270" />
<path fill="none" stroke="black" d="M 365 270 L 365 325" />
<path fill="none" stroke="black" d="M 365 325 L 380 325" />
<path fill="none" stroke="black" d="M 275 100 L 315 100" />
<path fill="none" stroke="black" d="M 315 100 L 315 155" />
<path fill="none" stroke="black" d="M 315 155 L 375 155" />
<path fill="none" stroke="black" d="M 185 270 L 185 170" />
<path fill="none" stroke="black" d="M 185 170 L 375 170" />
<path fill="none" stroke="black" d="M 415 170 L 451 170" />
<path fill="none" stroke="black" d="M 451 170 L 451 245" />
<path fill="none" stroke="black" d="M 451 245 L 510 245" />
<path fill="none" stroke="black" d="M 420 335 L 456 335" />
<path fill="none" stroke="black" d="M 456 335 L 456 265" />
<path fill="none" stroke="black" d="M 456 265 L 510 265" />
<path fill="none" stroke="black" d="M 550 255 L 650 255" />
<path fill="none" stroke="black" d="M 299 360 L 299 185" />
<path fill="none" stroke="black" d="M 299 185 L 375 185" />
</svg>